<mxfile host="app.diagrams.net" agent="Mozilla/5.0 (Windows NT 10.0; Win64; x64) AppleWebKit/537.36 (KHTML, like Gecko) Chrome/128.0.0.0 Safari/537.36" version="24.7.16">
  <diagram name="Page-1" id="mq4cPonKLPynqO4qxXRr">
    <mxGraphModel dx="989" dy="538" grid="1" gridSize="10" guides="1" tooltips="1" connect="1" arrows="1" fold="1" page="1" pageScale="1" pageWidth="827" pageHeight="1169" math="0" shadow="0">
      <root>
        <mxCell id="0" />
        <mxCell id="1" parent="0" />
        <mxCell id="uAXJ_lUiSkS8KoxUV1O8-6" value="" style="shape=parallelogram;perimeter=parallelogramPerimeter;whiteSpace=wrap;html=1;fixedSize=1;rotation=45;size=16;strokeWidth=3;fillColor=#FFD966;" vertex="1" parent="1">
          <mxGeometry x="345.8" y="338" width="106" height="90" as="geometry" />
        </mxCell>
        <mxCell id="uAXJ_lUiSkS8KoxUV1O8-3" value="" style="shape=parallelogram;perimeter=parallelogramPerimeter;whiteSpace=wrap;html=1;fixedSize=1;rotation=45;size=16;strokeWidth=3;fillColor=#97D077;" vertex="1" parent="1">
          <mxGeometry x="345.8" y="323.34" width="106" height="90" as="geometry" />
        </mxCell>
        <mxCell id="uAXJ_lUiSkS8KoxUV1O8-10" value="" style="shape=parallelogram;perimeter=parallelogramPerimeter;whiteSpace=wrap;html=1;fixedSize=1;rotation=45;size=16;strokeWidth=3;fillColor=#66B2FF;" vertex="1" parent="1">
          <mxGeometry x="347" y="310" width="106" height="90" as="geometry" />
        </mxCell>
        <mxCell id="uAXJ_lUiSkS8KoxUV1O8-18" value="" style="verticalLabelPosition=bottom;aspect=fixed;html=1;shape=mxgraph.salesforce.bots;" vertex="1" parent="1">
          <mxGeometry x="370" y="323.34" width="60" height="57" as="geometry" />
        </mxCell>
      </root>
    </mxGraphModel>
  </diagram>
</mxfile>
